<svg width="1086" height="213" viewBox="0 0 1086 213" fill="none" xmlns="http://www.w3.org/2000/svg">
<path d="M205.001 135.801C205.001 128.101 206.801 120.001 209.601 112.101C213.801 100.001 221.001 89.9008 230.501 81.5008C237.201 75.7008 244.701 71.3008 253.001 68.4008C262.701 64.9008 272.801 63.3008 283.101 64.1008C293.201 65.0008 302.901 67.6008 311.901 72.4008C312.701 72.8008 312.701 73.1008 312.101 73.7008C304.501 81.4008 296.801 89.0008 289.401 96.9008C286.801 99.7008 284.501 100.601 280.501 100.001C258.301 96.5008 240.401 113.301 238.501 133.101C237.001 148.901 246.701 165.001 261.401 170.701C269.301 173.801 277.401 174.301 285.501 171.901C286.601 171.601 287.301 171.801 288.001 172.601C295.701 180.501 303.401 188.401 311.001 196.301C311.668 196.967 312.334 197.634 313.001 198.301C313.601 198.901 313.601 199.401 312.701 199.901C303.634 204.701 293.968 207.634 283.701 208.701C268.801 210.401 255.001 206.501 242.001 199.301C228.301 191.701 218.301 180.501 211.801 166.201C207.501 156.801 205.701 146.801 205.001 135.801Z" fill="#071E52"/>
<path fill-rule="evenodd" clip-rule="evenodd" d="M350.501 137.1C350.201 149.9 346.801 162.3 340.001 173.7C339.201 174.9 338.801 174.9 337.801 173.9C329.201 165.167 320.601 156.467 312.001 147.8C311.001 146.8 310.901 145.9 311.301 144.4C312.401 140.9 312.301 137.2 312.101 133.5C311.901 131.2 311.801 128.9 310.901 126.8C310.401 125.4 310.801 124.4 311.801 123.4C317.301 118 322.801 112.5 328.301 107.1C331.501 103.9 334.701 100.8 337.901 97.6C338.501 97.1 338.801 96.7 339.401 97.7C344.801 106.8 348.301 116.5 349.801 127C350.201 130.2 350.401 133.4 350.501 137.1ZM330.101 163.4C330.201 164 329.101 163.9 329.601 164.5C329.901 165 330.201 164.4 330.501 164.3C331.201 164.2 331.201 164.7 331.101 165.1C330.601 166.6 331.401 166.6 332.601 166.4C333.501 166.2 334.501 166.8 334.401 167.7C334.301 169.1 334.901 169.3 336.001 169.4C337.101 169.5 337.701 170.5 337.401 171.4C337.201 171.8 336.801 172.1 337.201 172.5C337.401 172.7 337.701 172.6 337.901 172.5C338.401 172.2 338.801 171.8 338.701 171.3C338.601 170.7 338.301 170.1 337.901 169.6C337.501 169 337.601 168.6 338.401 168.8C340.601 169.2 341.201 167.6 342.101 166.1C342.801 165 342.801 163.7 343.501 162.8C344.001 162 344.401 161.4 344.001 160.5C343.901 160.2 343.801 159.4 344.301 159.6C345.401 160.1 345.001 159.3 345.101 158.8C345.601 155.8 346.601 152.9 347.601 150.1C347.901 149 348.601 148.1 347.701 147C347.601 146.8 347.601 146.4 347.701 146.3C349.101 145.4 348.201 144.3 348.001 143.3C347.801 142.5 347.601 141.8 348.201 141.1C349.801 139.5 350.301 137.5 349.901 135.4C349.501 133.6 348.701 131.9 349.301 130C349.401 129.7 349.501 129.2 349.101 128.9C348.501 128.9 348.701 129.8 348.101 129.7C347.801 129.5 347.901 129.3 347.901 129C348.101 127.5 349.401 125.9 347.601 124.5C347.501 124.4 347.501 124.1 347.501 123.9C347.601 122.6 347.101 121.5 346.801 120.3C346.501 119 345.301 118.2 345.201 116.8C345.001 115.3 345.001 113.7 344.601 112.2C344.401 111 343.401 110.5 343.201 109.4C342.801 107.1 341.301 105.9 338.901 105.7C338.401 105.6 338.101 105.4 337.801 105.2C336.101 104.3 334.501 104.6 333.301 106C333.001 106.4 332.701 106.6 332.201 106.6C331.301 106.5 330.501 106.5 330.401 107.9C330.401 108.3 330.001 108.9 329.601 109.1C328.501 109.5 328.101 110.7 327.301 111.2C325.901 112 325.201 113.2 324.401 114.4C323.401 115.8 322.101 117 320.901 118.4C320.501 118.9 320.001 119.4 319.301 119.1C318.601 118.9 318.601 119.1 318.601 119.8C318.601 120.7 318.201 121.8 317.201 121.6C315.601 121.4 315.601 122.3 315.701 123.2C315.901 125.1 314.001 126.4 314.301 128.3L314.101 128.4C313.401 128.8 313.301 129.4 313.201 130.1C313.201 131.9 313.001 133.7 313.001 135.5C312.901 136.4 312.901 137.3 313.601 138.1C314.201 138.8 314.001 139.8 313.301 140.5C313.101 140.6 312.501 140.8 312.901 141C313.901 141.7 313.301 142.8 313.801 143.6C314.201 144.4 314.101 144.9 313.201 145.1C312.601 145.2 312.501 145.8 312.701 146.1C313.501 147.6 314.101 149 315.701 150.1C317.101 151 318.401 152.5 319.501 153.9C320.901 155.6 322.101 157.3 323.801 158.6C325.601 159.9 325.801 159.7 326.501 161.4C326.501 161.5 326.601 161.6 326.701 161.6C328.001 161.8 328.501 163.6 330.101 163.4ZM333.501 167.9C333.501 167.6 333.301 167.3 333.001 167.4C332.901 167.4 332.801 167.6 332.801 167.7C332.901 167.9 332.901 168.2 333.301 168.3C333.501 168.3 333.501 168.1 333.501 167.9ZM334.101 104.3C334.401 104.3 334.501 104.1 334.401 103.9C334.401 103.7 334.201 103.6 334.001 103.6C333.801 103.6 333.701 103.8 333.701 104C333.801 104.1 334.001 104.2 334.101 104.3Z" fill="#F27614"/>
<path d="M330.101 163.401C328.501 163.601 328.001 161.801 326.701 161.601C326.601 161.601 326.501 161.501 326.501 161.401C325.801 159.701 325.601 159.901 323.801 158.601C322.101 157.301 320.901 155.601 319.501 153.901C318.401 152.501 317.101 151.001 315.701 150.101C314.101 149.001 313.501 147.601 312.701 146.101C312.501 145.801 312.601 145.201 313.201 145.101C314.101 144.901 314.201 144.401 313.801 143.601C313.301 142.801 313.901 141.701 312.901 141.001C312.501 140.801 313.101 140.601 313.301 140.501C314.001 139.801 314.201 138.801 313.601 138.101C312.901 137.301 312.901 136.401 313.001 135.501C313.001 133.701 313.201 131.901 313.201 130.101C313.301 129.401 313.401 128.801 314.101 128.401L314.301 128.301C314.001 126.401 315.901 125.101 315.701 123.201C315.601 122.301 315.601 121.401 317.201 121.601C318.201 121.801 318.601 120.701 318.601 119.801C318.601 119.101 318.601 118.901 319.301 119.101C320.001 119.401 320.501 118.901 320.901 118.401C322.101 117.001 323.401 115.801 324.401 114.401C325.201 113.201 325.901 112.001 327.301 111.201C328.101 110.701 328.501 109.501 329.601 109.101C330.001 108.901 330.401 108.301 330.401 107.901C330.501 106.501 331.301 106.501 332.201 106.601C332.701 106.601 333.001 106.401 333.301 106.001C334.501 104.601 336.101 104.301 337.801 105.201C338.101 105.401 338.401 105.601 338.901 105.701C341.301 105.901 342.801 107.101 343.201 109.401C343.401 110.501 344.401 111.001 344.601 112.201C345.001 113.701 345.001 115.301 345.201 116.801C345.301 118.201 346.501 119.001 346.801 120.301C347.101 121.501 347.601 122.601 347.501 123.901C347.501 124.101 347.501 124.401 347.601 124.501C349.401 125.901 348.101 127.501 347.901 129.001C347.901 129.301 347.801 129.501 348.101 129.701C348.701 129.801 348.501 128.901 349.101 128.901C349.501 129.201 349.401 129.701 349.301 130.001C348.701 131.901 349.501 133.601 349.901 135.401C350.301 137.501 349.801 139.501 348.201 141.101C347.601 141.801 347.801 142.501 348.001 143.301C348.201 144.301 349.101 145.401 347.701 146.301C347.601 146.401 347.601 146.801 347.701 147.001C348.601 148.101 347.901 149.001 347.601 150.101C346.601 152.901 345.601 155.801 345.101 158.801C345.001 159.301 345.401 160.101 344.301 159.601C343.801 159.401 343.901 160.201 344.001 160.501C344.401 161.401 344.001 162.001 343.501 162.801C342.801 163.701 342.801 165.001 342.101 166.101C341.201 167.601 340.601 169.201 338.401 168.801C337.601 168.601 337.501 169.001 337.901 169.601C338.301 170.101 338.601 170.701 338.701 171.301C338.801 171.801 338.401 172.201 337.901 172.501C337.701 172.601 337.401 172.701 337.201 172.501C336.801 172.101 337.201 171.801 337.401 171.401C337.701 170.501 337.101 169.501 336.001 169.401C334.901 169.301 334.301 169.101 334.401 167.701C334.501 166.801 333.501 166.201 332.601 166.401C331.401 166.601 330.601 166.601 331.101 165.101C331.201 164.701 331.201 164.201 330.501 164.301C330.201 164.401 329.901 165.001 329.601 164.501C329.101 163.901 330.201 164.001 330.101 163.401Z" fill="#F27614"/>
<path d="M333.501 167.9C333.501 168.1 333.501 168.3 333.301 168.3C332.901 168.2 332.901 167.9 332.801 167.7C332.801 167.6 332.901 167.4 333.001 167.4C333.301 167.3 333.501 167.6 333.501 167.9Z" fill="#F27614"/>
<path d="M334.101 104.302C334.001 104.202 333.801 104.102 333.701 104.002C333.701 103.802 333.801 103.602 334.001 103.602C334.201 103.602 334.401 103.702 334.401 103.902C334.501 104.102 334.401 104.302 334.101 104.302Z" fill="#F27614"/>
<path d="M338.404 98L312 125.632C314.428 130.733 313.012 141.32 312 145.976L339.315 173C357.282 142.15 346.194 110.146 338.404 98Z" fill="#F27614" stroke="#F27614"/>
<path d="M8.20068 41.8008C3.26735 37.1341 0.800781 31.4008 0.800781 24.6008C0.800781 17.6008 3.26735 11.8008 8.20068 7.20078C13.2007 2.60078 19.6341 0.300781 27.5007 0.300781C35.1674 0.300781 41.5007 2.60078 46.5007 7.20078C51.5007 11.8008 54.0007 17.6008 54.0007 24.6008C54.0007 31.4008 51.5007 37.1341 46.5007 41.8008C41.5007 46.4008 35.1674 48.7008 27.5007 48.7008C19.6341 48.7008 13.2007 46.4008 8.20068 41.8008ZM49.8008 63.9008V210.101H5.00073V63.9008H49.8008Z" fill="#071E52"/>
<path d="M124.2 173.2H187.601V210.1H74.1006V174.5L134.9 100.9H74.7004V63.9004H186.301V99.6004L124.2 173.2Z" fill="#071E52"/>
<path d="M608.701 78.9008C619.434 89.9008 624.801 105.167 624.801 124.701V210.101H580.301V130.701C580.301 121.301 577.801 114.034 572.801 108.901C567.867 103.701 561.034 101.101 552.301 101.101C543.567 101.101 536.701 103.701 531.701 108.901C526.701 114.034 524.201 121.301 524.201 130.701V210.101H479.701V130.701C479.701 121.301 477.201 114.034 472.201 108.901C467.267 103.701 460.434 101.101 451.701 101.101C442.967 101.101 436.101 103.701 431.101 108.901C426.101 114.034 423.601 121.301 423.601 130.701V210.101H378.801V63.9008H423.601V82.3008C428.134 76.1674 434.067 71.3008 441.401 67.7008C448.734 64.1008 457.034 62.3008 466.301 62.3008C477.301 62.3008 487.134 64.6674 495.801 69.4008C504.467 74.1341 511.234 80.8675 516.101 89.6008C521.167 81.5341 528.067 74.9674 536.801 69.9008C545.534 64.8341 555.067 62.3008 565.401 62.3008C583.534 62.3008 597.967 67.8341 608.701 78.9008Z" fill="#071E52"/>
<path fill-rule="evenodd" clip-rule="evenodd" d="M793.301 147.801H691.9C692.634 156.867 695.567 163.801 700.7 168.601C705.834 173.401 712.167 175.801 719.7 175.801C730.834 175.801 738.6 171.067 743 161.601H790.7C788.234 171.267 783.834 179.934 777.5 187.601C771.1 195.267 763.1 201.301 753.5 205.701C743.9 210.034 733.167 212.201 721.301 212.201C706.967 212.201 694.2 209.134 683 203.001C671.8 196.934 663.067 188.201 656.801 176.801C650.534 165.467 647.4 152.201 647.4 137.001C647.4 121.801 650.5 108.534 656.7 97.2008C662.9 85.8674 671.567 77.1341 682.7 71.0008C693.9 64.8674 706.767 61.8008 721.301 61.8008C735.434 61.8008 748 64.7674 759 70.7008C770 76.6341 778.601 85.1008 784.801 96.1008C791.001 107.167 794.101 120.034 794.101 134.701C794.101 138.834 793.834 143.201 793.301 147.801ZM748.2 122.901C748.2 115.167 745.6 109.034 740.4 104.501C735.134 99.9674 728.567 97.7008 720.7 97.7008C713.234 97.7008 706.9 99.9008 701.7 104.301C696.567 108.634 693.4 114.834 692.2 122.901H748.2Z" fill="#071E52"/>
<path d="M899.101 172.101V210.101H876.4C860.134 210.101 847.467 206.134 838.4 198.201C829.267 190.267 824.7 177.301 824.7 159.301V101.101H806.9V63.9008H824.7V28.3008H869.5V63.9008H898.9V101.101H869.5V159.801C869.5 164.201 870.567 167.334 872.7 169.201C874.767 171.134 878.267 172.101 883.2 172.101H899.101Z" fill="#071E52"/>
<path d="M988.501 69.3008C996.368 64.6341 1005.1 62.3008 1014.7 62.3008V109.801H1002.4C991.201 109.801 982.801 112.201 977.201 117.001C971.601 121.801 968.801 130.234 968.801 142.301V210.101H924.001V63.9008H968.801V88.3008C974.068 80.2341 980.634 73.9008 988.501 69.3008Z" fill="#071E52"/>
<path d="M1039.4 41.8008C1034.47 37.1341 1032 31.4008 1032 24.6008C1032 17.6008 1034.47 11.8008 1039.4 7.20078C1044.4 2.60078 1050.83 0.300781 1058.7 0.300781C1066.37 0.300781 1072.7 2.60078 1077.7 7.20078C1082.7 11.8008 1085.2 17.6008 1085.2 24.6008C1085.2 31.4008 1082.7 37.1341 1077.7 41.8008C1072.7 46.4008 1066.37 48.7008 1058.7 48.7008C1050.83 48.7008 1044.4 46.4008 1039.4 41.8008ZM1081 63.9008V210.101H1036.2V63.9008H1081Z" fill="#071E52"/>
</svg>
